<svg width="10" height="10" viewBox="0 0 10 10" fill="none" xmlns="http://www.w3.org/2000/svg">
<rect width="10" height="10" rx="5" fill="#E5E5E5"/>
<path d="M4.39453 6.39844C4.39974 6.08854 4.4349 5.84375 4.5 5.66406C4.5651 5.48438 4.69792 5.28516 4.89844 5.06641L5.41016 4.53906C5.62891 4.29167 5.73828 4.02604 5.73828 3.74219C5.73828 3.46875 5.66667 3.25521 5.52344 3.10156C5.38021 2.94531 5.17188 2.86719 4.89844 2.86719C4.63281 2.86719 4.41927 2.9375 4.25781 3.07812C4.09635 3.21875 4.01562 3.40755 4.01562 3.64453H3.29297C3.29818 3.22266 3.44792 2.88281 3.74219 2.625C4.03906 2.36458 4.42448 2.23438 4.89844 2.23438C5.39062 2.23438 5.77344 2.36719 6.04688 2.63281C6.32292 2.89583 6.46094 3.25781 6.46094 3.71875C6.46094 4.17448 6.25 4.6237 5.82812 5.06641L5.40234 5.48828C5.21224 5.69922 5.11719 6.0026 5.11719 6.39844H4.39453ZM4.36328 7.63672C4.36328 7.51953 4.39844 7.42188 4.46875 7.34375C4.54167 7.26302 4.64844 7.22266 4.78906 7.22266C4.92969 7.22266 5.03646 7.26302 5.10938 7.34375C5.18229 7.42188 5.21875 7.51953 5.21875 7.63672C5.21875 7.75391 5.18229 7.85156 5.10938 7.92969C5.03646 8.00521 4.92969 8.04297 4.78906 8.04297C4.64844 8.04297 4.54167 8.00521 4.46875 7.92969C4.39844 7.85156 4.36328 7.75391 4.36328 7.63672Z" fill="white"/>
</svg>
