<svg width="10" height="8" viewBox="0 0 10 8" fill="none" xmlns="http://www.w3.org/2000/svg">
<path d="M5.00014 0.833435C2.43309 0.833435 0.145628 3.50173 0.0493791 3.61548C-0.0164597 3.69298 -0.0164597 3.80673 0.0493791 3.88464C0.106878 3.95255 0.947705 4.92878 2.16019 5.70627L3.46601 4.40045C3.38101 4.20045 3.33351 3.98087 3.33351 3.75005C3.33351 2.8309 4.081 2.08342 5.00014 2.08342C5.23098 2.08342 5.45055 2.13091 5.65054 2.21591L6.72428 1.14218C6.20094 0.955093 5.62638 0.833435 5.00014 0.833435Z" fill="#8A8A8A"/>
<path d="M9.96301 3.63131C9.90967 3.55422 9.02512 2.30924 7.53805 1.50675L8.68928 0.355522C8.77053 0.274273 8.77053 0.142185 8.68928 0.0609366C8.60803 -0.0203122 8.47595 -0.0203122 8.3947 0.0609366L1.31149 7.14419C1.23024 7.22543 1.23024 7.35752 1.31149 7.43877C1.3519 7.47961 1.40523 7.50002 1.45857 7.50002C1.51191 7.50002 1.56523 7.47961 1.60607 7.43918L2.9123 6.13295C3.55604 6.44711 4.26603 6.66669 5.00018 6.66669C7.56723 6.66669 9.85469 3.99839 9.95094 3.88465C10.0114 3.81256 10.0168 3.70881 9.96301 3.63131ZM5.00018 5.41671C4.61559 5.41671 4.26603 5.28046 3.98353 5.06131L6.31141 2.73343C6.53057 3.01593 6.66681 3.36551 6.66681 3.75008C6.66681 4.66922 5.91932 5.41671 5.00018 5.41671Z" fill="#8A8A8A"/>
</svg>
