<svg width="10" height="6" viewBox="0 0 10 6" fill="none" xmlns="http://www.w3.org/2000/svg">
<path d="M9.96298 2.79787C9.88423 2.68371 7.99176 0 5.00014 0C2.43309 0 0.145628 2.6683 0.0493791 2.78205C-0.0164597 2.85955 -0.0164597 2.97329 0.0493791 3.0512C0.145628 3.16495 2.43309 5.83325 5.00014 5.83325C7.56719 5.83325 9.85466 3.16495 9.95091 3.0512C10.0113 2.97911 10.0167 2.87537 9.96298 2.79787ZM5.00014 4.58325C4.081 4.58325 3.33351 3.83576 3.33351 2.91662C3.33351 1.99747 4.081 1.24998 5.00014 1.24998C5.91929 1.24998 6.66678 1.99747 6.66678 2.91662C6.66678 3.83576 5.91929 4.58325 5.00014 4.58325Z" fill="#8A8A8A"/>
</svg>
